<svg xmlns="http://www.w3.org/2000/svg" width="500" height="500" viewBox="0 0 500 500"><defs><style>.a{isolation:isolate;}.b{fill:#0cf2f2;}</style></defs><g class="a" transform="translate(896.107 287.896)"><g transform="translate(-896.107 -287.896)"><path d="M458.962-1267.72c-18.883,6.638-44.575,15.7-57.076,20.116l-22.82,8.055-13.883,21.735-13.937,21.735-22.075,11.211c-12.128,6.152-22.394,11.252-22.713,11.374-.585.162-11.862-5.1-41.756-19.468a30.649,30.649,0,0,1-5.319-2.874c-.426-1.093-27.128-40.637-27.713-40.961-1.223-.769-112.183-37.8-112.5-37.6-.266.2.851,5.14,5.958,25.823l1.7,6.759,19.415,12.264c10.692,6.759,21.064,13.276,23.139,14.53,3.989,2.51,1.809,1.862,35.32,9.957l9.841,2.388,14.947,19.752c8.192,10.847,15.266,19.954,15.692,20.238.8.567,60,20.6,60.852,20.6.638,0,58.778-20.683,59.629-21.209.319-.2,7.394-9.633,15.692-20.966l15.107-20.6,13.564-3.521c7.447-1.943,16.862-4.371,20.958-5.383l7.341-1.9L460.5-1230c12.181-7.852,22.82-14.733,23.617-15.259,1.436-.891,1.6-1.5,5.372-17.647,2.128-9.188,3.883-16.757,3.83-16.8S477.792-1274.358,458.962-1267.72Z" transform="translate(-60.27 1279.701)"/><path d="M462.276-1247l-5.5.891-20.011,9.836-20.061,9.876-9.015,24.528c-5,13.519-10.352,27.968-11.838,32.137l-2.774,7.609h-4.062l-1.387-3.562c-1.436-3.724-12.383-31.287-19.466-48.854-2.328-5.788-4.458-10.726-4.755-11.009-.347-.283-9.51-4.452-20.408-9.269l-19.813-8.743-4.706-.567c-6.984-.809-7.034-.769-1.189,1.578l5.4,2.186,1.387,10.281,1.436,10.281,12.879,20.642,12.879,20.642,19.863,10.159L391-1158.2l19.565-10.645,19.516-10.645,12.779-21.411,12.73-21.411,1.04-8.257c.594-4.533,1.189-9.107,1.337-10.159l.347-1.943,5.35-2.469a58.018,58.018,0,0,0,5.4-2.631C469.061-1248.015,468.269-1247.934,462.276-1247Z" transform="translate(-145.61 1260.765)"/><path d="M636.434-1151.9c-5.845,1.052-11.244,2.024-11.987,2.186-.693.162-5.052,2.874-9.659,6.071l-8.322,5.788-18.823,5.181c-10.352,2.874-19.07,5.424-19.417,5.666-.3.243-8.668,12.385-18.624,26.957l-18.08,26.511-12.334,7.2c-6.736,4.007-12.68,7.488-13.176,7.771-.545.324-3.319,6.516-7.628,17l-6.786,16.554,11.145,8.824c6.093,4.817,11.244,8.824,11.442,8.824s7.579-3.643,16.346-8.1c12.235-6.193,16.4-8.095,17.634-8.095.892,0,9.015.567,18.079,1.214,9.065.688,16.891,1.174,17.436,1.052s7.38-2.752,15.207-5.869l14.266-5.707-11.69-9.107-11.69-9.147-2.526,1.781c-10.749,7.407-31.949,22.019-32.642,22.464-.644.4-1.04.364-2.328-.2-.842-.4-1.535-.931-1.535-1.133.05-.243,2.873-10.078,6.39-21.857l6.34-21.452-.991-.931c-.941-.809-1.436-.891-6.093-.891h-5.1l-.5-1.5c-.3-.809-.4-1.578-.248-1.7s12.681-7.528,27.838-16.433c25.608-15.057,27.788-16.433,30.562-19.266,6.687-6.881,39.131-40.961,39.279-41.285C648.471-1154.041,648.074-1154,636.434-1151.9Z" transform="translate(-228.516 1204.757)"/><path d="M461.277-1147.548c-4.012,2.469-7.579,4.452-7.925,4.412a75.993,75.993,0,0,1-7.826-4.169c-3.963-2.307-7.232-4.128-7.331-4.088-.1.081,1.337,3.845,3.121,8.378,5.1,12.669,9.956,24.852,11.442,28.656.743,1.9,1.436,3.238,1.486,3.036.1-.243,1.387-3.683,2.873-7.69,7.678-20.8,11.739-31.854,11.987-32.38.2-.324.1-.607-.1-.607C468.757-1151.96,465.29-1149.976,461.277-1147.548Z" transform="translate(-208.691 1203.687)"/><path d="M132-1143.314c0,.081,6.192,6.4,13.77,14s16.99,17.121,21,21.128c3.963,4.007,7.628,7.569,8.123,7.974.545.364,13.077,7.529,27.937,15.907s27.144,15.381,27.342,15.542c.2.122.1.931-.2,1.781l-.545,1.5h-5.3c-4.507,0-5.4.121-6.093.729a2.206,2.206,0,0,0-.842,1.255c0,.243,1.436,4.9,3.17,10.281s4.755,14.895,6.736,21.088l3.616,11.333-1.436.931a3.849,3.849,0,0,1-1.783.81c-.2-.041-7.876-5.181-17.039-11.414-9.213-6.233-17.089-11.536-17.584-11.819-.693-.445-2.279.728-12.136,8.824-6.241,5.1-11.244,9.431-11.1,9.593s6.538,2.55,14.166,5.343l13.968,5.1,18.476-1.538,18.525-1.5,15.95,7.488c8.817,4.088,16.346,7.569,16.792,7.731.545.162,3.765-2.226,11.393-8.419,5.845-4.776,10.6-8.864,10.6-9.107,0-.971-13.968-32.744-14.513-33.028-.3-.162-6.34-3.44-13.374-7.286l-12.779-7L230.323-1092.4,211.8-1118.705l-9.808-2.55c-5.4-1.417-13.968-3.643-19.07-4.979l-9.263-2.428-7.975-5.383-7.975-5.383-5.8-.891c-3.17-.485-8.965-1.376-12.829-2.024C135.17-1142.95,132-1143.395,132-1143.314Z" transform="translate(-66.764 1198.523)"/><path d="M708.769-1122.4c-.693.769-8.123,8.621-16.593,17.445l-15.355,16.069-11.145,6.557c-6.142,3.562-17.534,10.24-25.361,14.814s-14.216,8.419-14.216,8.581c-.049.2,1.139.324,2.625.324,2.675,0,2.724,0,5.6,2.631l2.873,2.59,8.421-1.174c4.656-.688,15.058-2.145,23.181-3.279l14.761-2.064,15.95,5.141,15.95,5.181,20.061,1.336c19.863,1.336,42.994,2.388,43.49,1.984.149-.122-7.48-14.652-16.94-32.34l-17.237-32.137-16.891-6.354c-9.312-3.521-17.138-6.436-17.436-6.516C710.255-1123.692,709.463-1123.126,708.769-1122.4Z" transform="translate(-290.376 1186.793)"/><path d="M60.785-1107.008l-16.544,6.557-1.288,2.388c-2.922,5.626-31.5,62.736-31.453,62.858.05.041,6.637-.445,14.662-1.093s21.794-1.7,30.661-2.307l16.1-1.093,16-5.626c8.817-3.076,16.643-5.586,17.436-5.586.743,0,4.953.445,9.263,1.012s13.721,1.74,20.9,2.671l13.077,1.659,3.269-2.671c3.17-2.55,3.368-2.631,6.093-2.752,1.585-.081,2.873-.162,2.873-.2s-11.442-6.557-25.46-14.45l-25.41-14.409-16.445-16.595c-9.065-9.107-16.594-16.635-16.792-16.757C77.527-1113.484,69.9-1110.61,60.785-1107.008Z" transform="translate(-5.951 1180.713)"/><path d="M442.8-969.286c-13.968,5.343-25.708,9.714-26.054,9.714-.644,0-1.833-.445-29.72-10.524-8.718-3.157-17.584-6.355-19.714-7.124-4.359-1.538-4.31-1.9-.545,3.481l2.13,3.076,13.572,7.407,13.572,7.447,6.093,14.207c3.368,7.812,6.836,15.826,7.727,17.85l1.635,3.643-11.937,9.755L387.674-900.6l1.536,4.817c.842,2.631,2.229,7.083,3.121,9.876l1.536,5.059-5.35,7.893c-2.922,4.331-8.52,12.547-12.433,18.214-3.913,5.707-7.133,10.645-7.133,11.009,0,.648,6.786,18.983,7.133,19.266.1.081,9.461-3,20.754-6.8l20.606-6.962,21.151,6.921c11.64,3.8,21.3,6.84,21.4,6.759.2-.2,5.2-14.571,6.142-17.688l.545-1.9-12.978-18.5c-7.083-10.2-12.928-18.74-12.928-18.983s1.437-4.614,3.22-9.674l3.22-9.188-9.263-7.407c-5.151-4.048-10.7-8.459-12.383-9.714l-3.022-2.348,7.38-18.092,7.43-18.093,13.225-7.69,13.225-7.731,2.576-3.724c1.437-2.064,2.427-3.724,2.229-3.724S456.822-974.629,442.8-969.286Z" transform="translate(-171.297 1094.97)"/><path d="M678.246-954.713c-11.195,1.578-20.507,3-20.655,3.117-.2.121,2.922,2.752,6.885,5.828,14.414,11.131,21.3,16.393,21.547,16.393.149,0,3.814-2.226,8.173-4.979,4.359-2.712,10.6-6.638,13.919-8.662l5.944-3.764,36.654,11.495c20.11,6.274,36.654,11.414,36.754,11.374.1-.081-3.566-4.736-8.123-10.362-4.557-5.667-8.322-10.321-8.371-10.362-.049-.081-9.164-.728-20.358-1.5l-20.259-1.376L715-952.446c-8.42-2.712-15.553-5.019-15.851-5.059C698.9-957.587,689.49-956.332,678.246-954.713Z" transform="translate(-306.265 1083.306)"/><path d="M99.089-945.4l-15.355,5.464-18.327,1.376c-10.055.729-18.773,1.376-19.367,1.376-.793,0-2.724,2.267-9.015,10.685C32.616-920.626,29-915.729,29-915.607c0,.081,15.851-5.262,35.267-11.94,19.367-6.638,35.366-12.142,35.565-12.183.347-.081,9.659,5.383,22.389,13.114l5.746,3.521,7.628-6.314c15.306-12.79,19.417-16.271,19.169-16.433-.2-.2-38.982-5.14-39.824-5.059C114.692-950.9,107.559-948.432,99.089-945.4Z" transform="translate(-14.783 1079.262)"/><path d="M632.6-942.824c0,.121-2.328,8.176-5.2,17.93-2.873,9.714-5.1,17.769-5,17.85s3.368-2.1,7.331-4.817c3.963-2.752,8.47-5.869,10.1-7,8.421-5.828,12.581-8.824,12.581-9.066,0-.324-18.723-14.733-19.367-14.935C632.8-942.946,632.6-942.905,632.6-942.824Z" transform="translate(-296.393 1074.383)"/><path d="M268.263-931.871,259-924.019l11.492,7.812c15.454,10.523,18.426,12.466,18.575,12.345.149-.162-11.1-35.5-11.393-35.74C277.575-939.683,273.315-936.2,268.263-931.871Z" transform="translate(-123.43 1072.369)"/><path d="M742.992-919.017c-1.635,1.052-7.281,4.614-12.532,7.893l-9.56,5.99,6.291,4.9c5.4,4.29,9.114,6.6,27.738,17.283l21.5,12.345,18.922,25.095c28.333,37.48,42.747,56.382,42.846,56.3a17.61,17.61,0,0,0-.347-3.238c-.248-1.74-.842-5.545-1.238-8.5-.4-2.914-3.17-22.99-6.192-44.563-3.021-21.614-5.845-42.013-6.291-45.332a39.477,39.477,0,0,0-1.139-6.4c-.149-.162-5.3-1.862-11.442-3.764-6.093-1.9-14.315-4.493-18.278-5.707s-15.8-4.938-26.351-8.257S747.351-921,746.855-921A14.193,14.193,0,0,0,742.992-919.017Z" transform="translate(-338.22 1059.743)"/><path d="M78.66-911.936c-8.866,3.076-18.327,6.314-44.084,15.138-12.829,4.412-23.33,8.014-23.38,8.055-.1.081-1.932,17.364-4.111,39.1-.248,2.793-1.932,19.185-3.715,36.428C1.636-795.974.249-781.848.3-781.808c.149.121,16-22.464,38.537-54.884l18.723-26.916,19.219-11.738c15.6-9.512,20.556-12.79,26.4-17.4,3.963-3.117,7.182-5.788,7.182-5.95,0-.4-24.766-15.3-25.41-15.3C84.752-914,81.929-913.069,78.66-911.936Z" transform="translate(-0.297 1055.443)"/><path d="M650.745-840.894l-14.365,5.788-6.687,5.545c-6.489,5.383-7.182,5.788-21.547,13.64-8.173,4.493-14.959,8.176-15.058,8.3-.148.081,1.238,1.376,3.022,2.874l3.269,2.712-2.576,4.7-2.625,4.655,14.909,14.612c8.223,8.055,15.108,14.611,15.355,14.531.248-.041,8.123-10.726,17.535-23.719l17.039-23.678,3.17-17.809c1.684-9.8,3.071-17.809,3.021-17.849S658.67-844.051,650.745-840.894Z" transform="translate(-280.658 1014.994)"/><path d="M745.136-844.907c-.149.648-.545,2.955-.892,5.221L743.6-835.6,759-810.949l15.4,24.649,21.448,13.033C807.7-766.1,817.5-760.233,817.7-760.193c.2,0,.347-4.128.4-9.228.05-5.06.1-9.39.149-9.633a78.249,78.249,0,0,0-5.2-7.286c-2.873-3.764-10.4-13.721-16.693-22.1L784.811-823.7l-19.466-11.171C754.646-840.981,745.779-846,745.68-846,745.532-846,745.284-845.514,745.136-844.907Z" transform="translate(-349.676 1014.582)"/><path d="M205-839.494c0,.162,1.684,8.1,3.715,17.647l3.765,17.4,7.826,10.766c4.309,5.909,11.838,16.271,16.693,22.99,4.9,6.719,9.064,12.264,9.312,12.345.545.121,29.522-29.142,29.522-29.79a29.1,29.1,0,0,0-2.477-4.129,27.182,27.182,0,0,1-2.477-4.29c0-.283,1.486-1.741,3.319-3.238s3.22-2.793,3.071-2.874c-.1-.081-6.786-3.562-14.81-7.771-14.067-7.366-14.909-7.893-21.943-13.4l-7.331-5.747L220.7-834.111C204.951-839.858,205-839.858,205-839.494Z" transform="translate(-97.111 1010.759)"/><path d="M107.831-827.707,89.5-816.455l-2.279,3.4c-1.288,1.862-8.322,12.061-15.7,22.666L58.1-771.083l.5,8.216a79.787,79.787,0,0,0,.842,8.9c.3.526,4.557-2.064,20.457-12.345l20.16-12.992,14.315-25.014,14.315-25.054-.991-4.817A25.612,25.612,0,0,0,126.455-839C126.257-839,117.936-833.9,107.831-827.707Z" transform="translate(-29.469 1010.315)"/><path d="M549.788-815.76c-8.668,4.452-15.851,8.136-16,8.257-.1.081-1.634,4.169-3.368,9.107l-3.121,8.9,5.647,8.055c3.319,4.736,5.894,7.974,6.241,7.893.347-.04,4.557-1.538,9.312-3.319l8.619-3.2,2.08-3.764,2.031-3.764-2.972-2.469-2.972-2.51L548-793.5c-3.963-.486-7.727-1.012-8.321-1.133-1.04-.243-.891-.567,3.368-6.921a76.693,76.693,0,0,1,4.9-6.881,33.809,33.809,0,0,1,5.1-.729c2.477-.283,11.145-1.255,19.169-2.145l14.612-1.659,5.1-4.088c2.774-2.267,5.052-4.209,5.052-4.331,0-.162-15.553-1.376-28.977-2.267C565.539-823.815,565.49-823.774,549.788-815.76Z" transform="translate(-249.649 1001.503)"/><path d="M287.672-819.578c-7.182.607-13.126,1.214-13.275,1.3a41.606,41.606,0,0,0,5.3,4.412l5.548,4.209,18.377,1.7c10.1.931,18.971,1.7,19.665,1.7,1.189.041,1.734.648,4.656,4.978,1.882,2.752,4.012,5.909,4.8,7.043l1.387,2.064L325.465-791,316.8-789.87l-3.071,2.55-3.121,2.55,2.229,3.562,2.229,3.521,9.114,3.359c5,1.821,9.164,3.278,9.213,3.238.1-.081,2.625-3.724,5.6-8.176l5.449-8.014-.644-1.9c-.4-1.012-1.734-5.14-2.972-9.147-1.288-4.007-2.378-7.326-2.427-7.367s-7.331-3.44-16.148-7.569C303.423-822.047,307.633-821.278,287.672-819.578Z" transform="translate(-129.979 999.658)"/><path d="M736.483-796.812c-.892,5.059-1.635,9.714-1.585,10.4,0,.688,2.08,8.54,4.606,17.485l4.656,16.19,27.54,24.083c24.222,21.168,53.1,45.332,53.595,44.847.1-.081-.248-4.979-.743-10.888s-1.238-15.3-1.684-20.845c-.446-5.586-.941-10.483-1.04-10.928-.148-.486-10.5-7-27.59-17.283L766.9-760.223,753.027-782.4c-7.628-12.183-14.018-22.464-14.216-22.868s-.446-.729-.545-.729S737.374-801.872,736.483-796.812Z" transform="translate(-345.283 989.43)"/><path d="M107.094-776.537,93.968-753.587l-26.352,17c-15.454,9.957-26.451,17.323-26.55,17.809-.248.769-1.684,41.568-1.486,41.811.2.283,56.913-51.4,74.1-67.513,2.724-2.59,2.823-2.712,4.062-7.488.693-2.671,2.576-10.038,4.26-16.352l2.972-11.495-2.08-9.552c-1.139-5.262-2.179-9.674-2.328-9.836C120.369-799.365,114.326-789.165,107.094-776.537Z" transform="translate(-20.113 985.266)"/><path class="b" d="M592.316-786.333c-2.328.283-8.52,1.012-13.82,1.579-5.3.607-9.758,1.174-10.006,1.255-.5.243-5.548,7.933-5.3,8.1.1.04,2.576.4,5.548.809l5.35.688,11.591-6.355c6.39-3.521,11.59-6.435,11.59-6.516s-.148-.122-.347-.122C596.675-786.86,594.644-786.617,592.316-786.333Z" transform="translate(-268.062 979.597)"/><path class="b" d="M313.038-782.952c.347.283,5.6,3.076,11.69,6.274l11,5.748,5.7-.688c3.121-.4,5.7-.769,5.7-.85,0-.243-5.548-8.257-5.7-8.257-.3,0-22.092-2.024-25.658-2.348C313.137-783.357,312.542-783.316,313.038-782.952Z" transform="translate(-148.989 977.389)"/><path d="M673.1-722.77l-16.643,23.111-2.229,15.1c-1.238,8.3-2.229,16.352-2.229,17.85v2.752l2.873-3.238c12.185-13.6,43.193-49.137,43.193-49.5,0-.486-7.975-28.94-8.173-29.1C689.843-745.841,682.314-735.479,673.1-722.77Z" transform="translate(-309.784 953.409)"/><path d="M210.181-738.335c-.149.4-1.833,6.881-3.765,14.369L202.9-710.285l3.071,3.724c1.684,2.024,10.006,11.495,18.476,20.966,8.47,9.512,17.188,19.347,19.367,21.9,3.269,3.8,3.963,4.452,4.111,3.643.1-.486-.05-4.614-.347-9.107a84.417,84.417,0,0,0-2.477-16.554l-1.932-8.3-16.346-22.545C215.729-731.778,210.38-738.82,210.181-738.335Z" transform="translate(-96.525 948.924)"/><path d="M563.709-704.067c-4.21,1.579-7.876,3-8.123,3.2-.446.364,9.857,15.421,15.6,22.95,1.981,2.509,7.777,8.5,15.058,15.5,6.538,6.274,12.185,11.7,12.482,12.062.347.324.743.567.842.445.2-.162,3.665-22.828,3.913-25.58.1-.931-2.526-3.683-15.256-16.271-8.421-8.338-15.7-15.138-16.1-15.138A82.737,82.737,0,0,0,563.709-704.067Z" transform="translate(-263.919 930.127)"/><path d="M308.157-690.252C299.489-681.429,293-674.467,293-673.981c0,.445.793,4.209,1.783,8.338a92.347,92.347,0,0,1,2.13,12.143l.3,4.574L309.1-660.139c6.538-6.193,12.581-12.1,13.423-13.114s5.3-7.326,9.857-13.964c7.678-11.252,8.222-12.183,7.38-12.669a4.014,4.014,0,0,0-1.238-.526c-.248,0-3.269-1.052-6.737-2.388-3.467-1.3-6.836-2.469-7.43-2.631C323.364-705.673,321.581-703.973,308.157-690.252Z" transform="translate(-139.279 929.252)"/><path d="M742.171-662.607a38.412,38.412,0,0,0-2.873,3.44c-.1.283,3.765,7.488,8.668,16.028s18.624,32.542,30.562,53.346c11.888,20.8,22.835,39.828,24.222,42.3,2.526,4.29,9.312,12.75,9.609,11.981.1-.2-3.121-19.023-7.083-41.811-7.182-41.042-7.281-41.406-8.619-42.62-.743-.688-12.482-10.969-26.054-22.869s-24.915-21.9-25.262-22.18C744.9-665.4,744.251-664.955,742.171-662.607Z" transform="translate(-347.504 902.901)"/><path d="M109.03-638.7c-13.324,12.264-24.866,22.949-25.559,23.759-1.238,1.417-1.436,2.428-3.616,16.878-1.238,8.459-3.963,26.471-5.993,40.03-2.08,13.559-3.665,24.852-3.566,25.054.5,1.3,7.529-10.483,19.169-32.1,7.133-13.235,15.4-28.535,18.327-34s10.848-20.116,17.584-32.583,12.334-22.99,12.482-23.354c.248-.648-3.616-5.95-4.309-5.99C133.4-661,122.4-650.962,109.03-638.7Z" transform="translate(-35.621 900.414)"/><path d="M706.785-640.66c-.4.486-6.043,6.962-12.581,14.369-10.006,11.374-11.739,13.6-11.194,14.045.4.283,12.383,8.216,26.7,17.607l26,17.08,1.833,6.759c1.04,3.683,5.1,18.9,9.064,33.837,6.192,23.273,11.393,40.516,12.581,41.568.149.162,3.269-7.164,6.935-16.312l6.588-16.635-25.906-45.17c-14.216-24.852-26.847-46.87-27.986-48.854-1.139-2.024-4.012-7-6.39-11.131-2.328-4.128-4.408-7.609-4.607-7.771S707.131-641.146,706.785-640.66Z" transform="translate(-319.052 887.8)"/><path d="M144.534-627.748c-4.854,9.026-38.636,71.8-51.762,96.048L89.8-526.2l6.588,16.473c3.616,9.026,6.687,16.433,6.885,16.433.347,0,8.322-30.964,17.386-67.594l3.517-14.369,2.08-1.5c1.09-.809,12.73-8.7,25.807-17.526s23.825-16.231,23.924-16.433c.2-.364-24.618-28.292-25.113-28.292C150.726-639,147.853-633.941,144.534-627.748Z" transform="translate(-45.467 886.387)"/><path d="M332.362-631.632c-1.288,1.9-6.935,7.569-16.3,16.473L301.8-601.6l.3,4.29c.2,2.348.446,5.626.644,7.286l.3,3.036,8.718,6.516,8.767,6.557,20.011,1.579,20.061,1.619,11.64-2.428c6.39-1.336,11.739-2.51,11.888-2.59.3-.2-4.111-14.733-4.706-15.34-.248-.324-5.151-1.821-10.9-3.4-5.7-1.579-11-3.036-11.739-3.279-.842-.283-2.279-1.7-4.161-4.128-1.585-2.064-4.706-5.99-6.935-8.824-4.062-5.059-4.062-5.059-7.43-14.166-1.833-4.978-3.467-9.188-3.616-9.35C334.442-634.384,333.452-633.21,332.362-631.632Z" transform="translate(-142.647 885.642)"/><path d="M526.447-632.288c-.545,1.538-2.031,5.828-3.319,9.633-1.437,4.25-2.724,7.285-3.368,7.933-.594.567-3.765,4.493-7.083,8.7l-6.043,7.65-11.64,3.157c-6.39,1.74-11.838,3.359-12.086,3.643-.4.4-3.913,12.709-4.21,14.814-.1.445,2.873,1.214,11.541,3.076l11.64,2.469,20.408-1.255,20.358-1.255,2.18-1.579c1.139-.85,5.151-3.845,8.916-6.6l6.736-5.019.05-7.528v-7.569l-14.365-13.762c-7.876-7.528-15.207-14.976-16.346-16.473A22.975,22.975,0,0,0,527.636-635,12.846,12.846,0,0,0,526.447-632.288Z" transform="translate(-226.185 886.102)"/><path d="M417.536-615.991c-9.56,3.279-17.386,5.95-17.336,5.99.1.081,6.935,1.214,15.256,2.59s15.454,2.59,15.9,2.712a9.029,9.029,0,0,1,2.675,2.388,18.711,18.711,0,0,0,2.229,2.429c.248.121,1.139-.729,2.031-1.9.941-1.133,1.783-2.226,1.932-2.388.248-.283,30.066-5.626,31.4-5.626q.446,0,0-.364c-.594-.486-35.218-11.778-36.01-11.738C435.269-621.9,427.146-619.229,417.536-615.991Z" transform="translate(-189.45 878.952)"/><path d="M394.984-584.788c0,.486,10.551,13.6,10.947,13.6.248,0,5.8,1.5,12.284,3.319l11.888,3.319,1.535,5.262c.892,2.914,1.684,5.586,1.833,5.909s.892-1.659,1.684-4.452,1.536-5.424,1.684-5.869c.2-.688,2.378-1.457,12.581-4.25l12.334-3.44,5.25-6.638a76.268,76.268,0,0,0,5.052-6.8c-.2-.2-30.909,5.059-31.6,5.383a47.758,47.758,0,0,0-3.418,3.845c-1.634,1.983-3.121,3.562-3.319,3.44-.2-.081-1.783-1.821-3.566-3.8-3.071-3.521-3.319-3.683-5.7-4.047-1.337-.243-8.47-1.457-15.8-2.671C393.944-585.193,394.984-585.031,394.984-584.788Z" transform="translate(-186.804 856.229)"/><path d="M667.12-560.357A24.542,24.542,0,0,0,664-556.31c0,.243,6.043,6.435,13.374,13.761l13.374,13.316.5,46.061c.248,25.338.594,52.415.743,60.227.149,7.771.248,16.312.248,18.9,0,2.631.148,4.776.4,4.776a13.529,13.529,0,0,0,2.378-2.712c2.031-2.793,16.4-21.938,35.02-46.749,5.647-7.488,10.253-13.883,10.253-14.207,0-.486-1.833-7.447-8.421-32.056-1.09-4.007-3.517-13.195-5.448-20.44s-3.665-13.438-3.864-13.8c-.248-.526-51.861-34.809-52.257-34.768C670.241-563.96,668.8-562.341,667.12-560.357Z" transform="translate(-309.504 836.585)"/><path d="M175.75-545.365c-13.473,9.107-24.816,16.838-25.163,17.121s-1.635,4.493-2.873,9.39c-1.238,4.857-3.765,14.976-5.647,22.423s-4.607,18.335-6.093,24.123L133.3-461.7l10.5,13.681c5.746,7.569,16.544,21.695,23.974,31.409,7.43,9.755,13.622,17.728,13.77,17.728s.1-29.021-.1-64.477L181.1-527.8l12.928-13.357c7.133-7.326,12.879-13.519,12.73-13.762A60.674,60.674,0,0,0,200.615-562C200.417-561.96,189.223-554.512,175.75-545.365Z" transform="translate(-67.42 835.394)"/><path d="M632.844-535.979c-1.437,1.619-1.536,1.943-1.536,5.181v3.481l-10.154,7.488C615.557-515.7,611-512.3,611-512.22c0,.122,6.538,13.843,20.309,42.58,2.378,5.019,9.956,20.845,16.841,35.213s12.581,26.187,12.73,26.309c.248.2-.049-36.387-.644-81.517l-.347-22.666-12.383-12.345c-6.836-6.8-12.532-12.547-12.73-12.709C634.578-537.557,633.736-536.909,632.844-535.979Z" transform="translate(-290.146 824.598)"/><path d="M250.084-524.372,237.8-511.7l.347,50.594c.2,27.806.4,50.634.446,50.675.049.081,1.436-2.833,18.624-39.544,15.5-33.149,16.4-35.011,22.983-49.1,3.418-7.286,6.241-13.4,6.241-13.559,0-.2-4.408-3.643-9.808-7.65l-9.857-7.326-.3-2.712a6.562,6.562,0,0,0-2.13-4.7A20.107,20.107,0,0,0,262.467-537C262.418-537,256.821-531.293,250.084-524.372Z" transform="translate(-113.042 824.449)"/><path d="M452.789-480.648c-2.972.688-5.5,1.255-5.6,1.336a11.949,11.949,0,0,0,1.734,2.59l1.882,2.469h18.476l1.833-2.064a25.388,25.388,0,0,0,2.031-2.55c.248-.526-11.145-3.117-13.473-3.036A64.582,64.582,0,0,0,452.789-480.648Z" transform="translate(-213.115 793.977)"/><path d="M347.218-475.11c.149.526.743,3.076,1.338,5.707,1.04,4.412,1.238,4.857,2.675,5.707.842.526,9.114,5.262,18.377,10.524L386.4-443.62H433.5l18.08-10.281,18.079-10.24,1.288-5.626c.743-3.117,1.288-5.666,1.238-5.707s-8.421.445-18.624,1.093l-18.575,1.214-3.913-.89c-2.576-.567-3.962-.688-4.21-.4-.149.2-1.536,1.862-3.022,3.683l-2.724,3.278H398.138l-2.378-3.076c-1.337-1.659-2.625-3.359-2.922-3.683-.5-.607-.941-.567-4.706.2l-4.161.85-17.584-1.376c-9.659-.769-17.98-1.417-18.525-1.417C347.168-476,347.02-475.8,347.218-475.11Z" transform="translate(-162.671 789.826)"/><path d="M289.422-459.089c-1.238,2.631-4.508,9.512-7.182,15.3-5.7,12.143-13.621,29.021-28.036,59.822-5.6,11.981-10.2,21.9-10.2,22.1,0,.162,2.477,3.279,5.5,6.962,3.021,3.643,11.739,14.247,19.417,23.557,7.628,9.309,14.067,16.757,14.266,16.595s2.13-4.9,4.309-10.443c3.418-8.621,4.458-11.981,7.034-22.666,1.684-6.921,4.458-18.457,6.192-25.7s4.9-20.278,6.984-28.94l3.765-15.785,12.383-7.286,12.383-7.286L334.3-433.1c-1.436-.162-6.538-2.874-20.952-11.09-10.5-5.95-19.12-10.888-19.219-10.928-.05-.04-.545-1.943-1.09-4.25A42.334,42.334,0,0,0,291.9-463.7C291.75-463.784,290.66-461.72,289.422-459.089Z" transform="translate(-115.152 776.885)"/><path d="M560.074-463.867c-.05.162-.347,1.5-.743,3.036-.4,1.5-.842,3.44-.991,4.25-.3,1.417-.941,1.862-11.591,7.933-27.392,15.623-26.946,15.381-29.521,15.543l-2.328.121,12.433,7.65c6.786,4.209,12.383,7.731,12.383,7.852,0,.2,6.935,26.592,14.86,56.544,2.477,9.35,4.953,18.74,5.449,20.845.892,3.643,9.857,26.309,10.4,26.309.148-.04,9.015-10.6,19.714-23.516l19.516-23.435-12.631-26.43C560.421-463.624,560.074-464.271,560.074-463.867Z" transform="translate(-242.71 777.007)"/><path d="M449.436-385.312c1.436,3.076,11.145,25.742,11.145,26.107,0,1.457,1.387-1.538,6.142-13.276,2.873-7.124,5.25-13.114,5.25-13.235A114.277,114.277,0,0,0,460.531-386C449.832-386,449.089-385.96,449.436-385.312Z" transform="translate(-214.253 735.105)"/><path d="M392.333-384.169c-.792.567-6.489,3.926-12.68,7.569-6.142,3.6-11.442,6.759-11.69,7.043a47.369,47.369,0,0,0-1.981,6.962c-.842,3.562-2.972,12.466-4.755,19.833-1.783,7.326-5.449,22.626-8.173,34L348.1-288.121l5.4,16.109c5.349,16.028,5.4,16.231,7.43,28.333,1.09,6.719,2.13,12.669,2.279,13.235.248.809.594.324,1.932-2.631.892-2.024,3.467-7.731,5.7-12.75l4.111-9.107-.594-8.5c-.347-4.7-.991-13.438-1.486-19.428l-.892-10.928L391-314.026c10.451-11.131,19.169-20.157,19.367-20.076.3.162,9.956,10.2,33.138,34.444l5.6,5.869v2.429c0,1.336-.446,10.564-.991,20.48l-.991,18.052,5.5,11.09c5.25,10.564,6.39,12.588,6.39,11.293,0-.324.892-6.233,1.981-13.154,1.981-12.507,1.981-12.628,7.133-28.292l5.1-15.7-3.913-14.854c-10.6-40.151-14.81-56.18-16.1-61.077l-1.387-5.424L439.043-376.8c-6.984-4.331-13.027-7.974-13.374-8.055-.4-.121-2.724,5.059-7.182,16.19L411.9-352.275h-3.764l-6.588-15.3c-3.665-8.378-6.885-15.785-7.182-16.392l-.594-1.133Z" transform="translate(-163.12 730.095)"/><path d="M439.345-233.542,428.2-221.682l3.071,3.036c1.734,1.7,6.736,6.719,11.194,11.171,4.408,4.452,8.322,8.1,8.619,8.1s5.5-4.978,11.541-11.05l11-11.05-10.649-11.212c-5.894-6.152-11.1-11.535-11.591-11.94C450.539-245.36,450.094-244.956,439.345-233.542Z" transform="translate(-203.523 646.616)"/></g></g></svg>