<svg xmlns="http://www.w3.org/2000/svg" xmlns:xlink="http://www.w3.org/1999/xlink" width="512" height="419.051" viewBox="0 0 512 419.051">
  <defs>
    <linearGradient id="linear-gradient" x1="0.5" x2="0.5" y2="1" gradientUnits="objectBoundingBox">
      <stop offset="0" stop-color="#590260"/>
      <stop offset="1" stop-color="#120013"/>
    </linearGradient>
  </defs>
  <path id="_043-twitter" data-name="043-twitter" d="M512,55.965c-32.207,1.484-31.5,1.363-35.145,1.668L495.93,3.16s-59.539,21.9-74.633,25.82c-39.641-35.629-98.562-37.2-140.688-11.312-34.5,21.207-53.012,57.625-46.836,100.191C166.636,108.542,110.07,76.718,65.41,23.07L51.285,6.1,40.73,25.488c-13.34,24.492-17.77,52.5-12.477,78.852A113.286,113.286,0,0,0,39.23,135.121l-12.117-4.7-1.437,20.246c-1.457,20.566,5.391,44.574,18.32,64.215a114.188,114.188,0,0,0,14.27,17.6L52,231.523l7.641,23.2c10.043,30.48,30.9,54.063,57.973,67.172-27.035,11.473-48.875,18.793-84.773,30.6L0,363.293l30.336,16.586c11.566,6.324,52.437,27.445,92.82,33.781,89.766,14.078,190.832,2.613,258.871-58.664,57.309-51.613,76.113-125.031,72.207-201.434-.59-11.566,2.578-22.605,8.922-31.078,12.707-16.965,48.766-66.406,48.844-66.52Zm-72.832,48.551c-10.535,14.066-15.812,32.031-14.867,50.578,3.941,77.066-17.027,136.832-62.328,177.629C309.055,380.383,223.7,399.09,127.8,384.047c-17.367-2.723-35.316-8.82-50.172-14.91,30.1-10.355,53.34-19.586,90.875-37.352l52.4-24.8-57.852-3.7c-27.711-1.773-50.785-15.2-64.969-37.008a103.762,103.762,0,0,0,22.023-3.672l55.176-15.367-55.637-13.625c-27.035-6.621-42.445-22.8-50.613-35.2a84.866,84.866,0,0,1-10.969-24.2c5.578,1.5,12.082,2.563,22.57,3.6l51.5,5.094-40.8-31.828c-29.4-22.93-41.18-57.379-32.543-90.5,91.75,95.164,199.477,88.012,210.32,90.527-2.387-23.184-2.449-23.238-3.074-25.445C252.144,76.566,282.578,51.641,296.3,43.2c28.672-17.621,74.184-20.277,105.707,8.754a26.843,26.843,0,0,0,24.633,6.59,207.331,207.331,0,0,0,20.3-6.172L434,89.32l16.516.012c-3.117,4.18-6.855,9.184-11.352,15.184Zm0,0" transform="translate(0 0)" fill="url(#linear-gradient)"/>
</svg>
